<svg xmlns="http://www.w3.org/2000/svg" xmlns:gn="http://www.goodnotes.com/gn-svg" width="430" height="900" viewBox="0 0 430 900">
  <!-- Phone body -->
  <rect x="5" y="5" width="420" height="890" rx="50" fill="#1a1a2e"/>
  <rect x="1" y="150" width="4" height="35" rx="2" fill="#252550"/>
  <rect x="1" y="196" width="4" height="55" rx="2" fill="#252550"/>
  <rect x="425" y="168" width="4" height="65" rx="2" fill="#252550"/>
  <!-- Screen -->
  <rect x="20" y="20" width="390" height="860" rx="38" fill="#eef1fb"/>
  <!-- Dynamic island -->
  <rect x="155" y="28" width="120" height="30" rx="15" fill="#0a0a18"/>
  <!-- Status bar -->
  <text x="42" y="52" font-family="PingFang SC, sans-serif" font-size="12" font-weight="600" fill="#0f1733">9:41</text>
  <rect x="358" y="44" width="22" height="11" rx="2" fill="none" stroke="#0f1733" stroke-width="1.5"/>
  <rect x="360" y="46" width="16" height="7" rx="1" fill="#0f1733"/>
  <rect x="381" y="47" width="3" height="5" rx="1" fill="#0f1733"/>

  <!-- Screen header (white) -->
  <rect x="20" y="20" width="390" height="100" rx="38" fill="#ffffff"/>
  <rect x="20" y="58" width="390" height="55" fill="#ffffff"/>
  <rect x="20" y="113" width="390" height="1" fill="#e3e7f6"/>
  <!-- Back chevron -->
  <line x1="50" y1="84" x2="42" y2="76" stroke="#4a6cf7" stroke-width="2"/>
  <line x1="42" y1="76" x2="50" y2="68" stroke="#4a6cf7" stroke-width="2"/>
  <text x="215" y="83" font-family="PingFang SC, sans-serif" font-size="16" font-weight="600" fill="#0f1733" text-anchor="middle">设置</text>

  <!-- User profile row -->
  <rect x="32" y="122" width="366" height="64" rx="14" fill="#ffffff"/>
  <circle cx="62" cy="154" r="20" fill="#4a6cf7"/>
  <text x="62" y="160" font-family="PingFang SC, sans-serif" font-size="14" font-weight="700" fill="#ffffff" text-anchor="middle">天</text>
  <text x="92" y="149" font-family="PingFang SC, sans-serif" font-size="15" font-weight="700" fill="#0f1733">天天</text>
  <text x="92" y="166" font-family="PingFang SC, sans-serif" font-size="11" fill="#5a6690">已使用第 34 天</text>
  <line x1="374" y1="154" x2="382" y2="154" stroke="#c0c8df" stroke-width="1.5"/>
  <line x1="377" y1="150" x2="382" y2="154" stroke="#c0c8df" stroke-width="1.5"/>
  <line x1="377" y1="158" x2="382" y2="154" stroke="#c0c8df" stroke-width="1.5"/>

  <!-- Section divider -->
  <rect x="20" y="196" width="390" height="1" fill="#e3e7f6"/>

  <!-- AI Memory section header -->
  <text x="32" y="219" font-family="PingFang SC, sans-serif" font-size="13" font-weight="700" fill="#0f1733">宝盒学到的</text>
  <rect x="152" y="207" width="55" height="17" rx="6" fill="#eeeaff"/>
  <text x="179" y="219" font-family="PingFang SC, sans-serif" font-size="9" font-weight="600" fill="#7c5af0" text-anchor="middle">23 条记忆</text>
  <text x="268" y="219" font-family="PingFang SC, sans-serif" font-size="11" fill="#9ba5c0">持续增长中</text>

  <!-- Memory progress bar -->
  <rect x="32" y="228" width="366" height="42" rx="11" fill="#edf0fd"/>
  <rect x="44" y="244" width="226" height="5" rx="3" fill="#d8dff5"/>
  <rect x="44" y="244" width="154" height="5" rx="3" fill="#4a6cf7"/>
  <text x="280" y="249" font-family="PingFang SC, sans-serif" font-size="9" font-weight="700" fill="#4a6cf7">68%</text>
  <text x="44" y="262" font-family="PingFang SC, sans-serif" font-size="10" fill="#4a6cf7">已了解 23 件事 · 持续成长中</text>

  <!-- Memory Card 1: 节律 -->
  <rect x="32" y="280" width="366" height="52" rx="11" fill="#ffffff" stroke="#e3e7f6" stroke-width="1"/>
  <rect x="44" y="294" width="28" height="16" rx="4" fill="#edf0fd"/>
  <text x="58" y="305" font-family="PingFang SC, sans-serif" font-size="9" font-weight="700" fill="#4a6cf7" text-anchor="middle">节律</text>
  <text x="82" y="301" font-family="PingFang SC, sans-serif" font-size="12" fill="#0f1733">晚上 10-11 点最活跃</text>
  <text x="82" y="317" font-family="PingFang SC, sans-serif" font-size="10" fill="#9ba5c0">置信度 88%</text>
  <circle cx="348" cy="306" r="3" fill="#19c37d"/>
  <circle cx="356" cy="306" r="3" fill="#19c37d"/>
  <circle cx="364" cy="306" r="3" fill="#c0c8df"/>

  <!-- Memory Card 2: 情绪 -->
  <rect x="32" y="340" width="366" height="52" rx="11" fill="#ffffff" stroke="#e3e7f6" stroke-width="1"/>
  <rect x="44" y="354" width="28" height="16" rx="4" fill="#fdedf0"/>
  <text x="58" y="365" font-family="PingFang SC, sans-serif" font-size="9" font-weight="700" fill="#e05252" text-anchor="middle">情绪</text>
  <text x="82" y="361" font-family="PingFang SC, sans-serif" font-size="12" fill="#0f1733">近两周情绪偏蓝，在慢慢回暖</text>
  <text x="82" y="377" font-family="PingFang SC, sans-serif" font-size="10" fill="#9ba5c0">置信度 75%</text>
  <circle cx="348" cy="366" r="3" fill="#19c37d"/>
  <circle cx="356" cy="366" r="3" fill="#c0c8df"/>
  <circle cx="364" cy="366" r="3" fill="#c0c8df"/>

  <!-- Memory Card 3: 习惯 -->
  <rect x="32" y="400" width="366" height="52" rx="11" fill="#ffffff" stroke="#e3e7f6" stroke-width="1"/>
  <rect x="44" y="414" width="28" height="16" rx="4" fill="#fdf3ed"/>
  <text x="58" y="425" font-family="PingFang SC, sans-serif" font-size="9" font-weight="700" fill="#e8923a" text-anchor="middle">习惯</text>
  <text x="82" y="421" font-family="PingFang SC, sans-serif" font-size="12" fill="#0f1733">周一低效，周五产出高</text>
  <text x="82" y="437" font-family="PingFang SC, sans-serif" font-size="10" fill="#9ba5c0">置信度 82%</text>
  <circle cx="348" cy="426" r="3" fill="#19c37d"/>
  <circle cx="356" cy="426" r="3" fill="#19c37d"/>
  <circle cx="364" cy="426" r="3" fill="#c0c8df"/>

  <!-- Memory Card 4: 偏好 -->
  <rect x="32" y="460" width="366" height="52" rx="11" fill="#ffffff" stroke="#e3e7f6" stroke-width="1"/>
  <rect x="44" y="474" width="28" height="16" rx="4" fill="#eeeaff"/>
  <text x="58" y="485" font-family="PingFang SC, sans-serif" font-size="9" font-weight="700" fill="#7c5af0" text-anchor="middle">偏好</text>
  <text x="82" y="481" font-family="PingFang SC, sans-serif" font-size="12" fill="#0f1733">喜欢从容节奏，不喜欢被催</text>
  <text x="82" y="497" font-family="PingFang SC, sans-serif" font-size="10" fill="#9ba5c0">置信度 91%</text>
  <circle cx="348" cy="486" r="3" fill="#19c37d"/>
  <circle cx="356" cy="486" r="3" fill="#19c37d"/>
  <circle cx="364" cy="486" r="3" fill="#19c37d"/>

  <!-- Memory Card 5: 关系 -->
  <rect x="32" y="520" width="366" height="52" rx="11" fill="#ffffff" stroke="#e3e7f6" stroke-width="1"/>
  <rect x="44" y="534" width="28" height="16" rx="4" fill="#edf4fd"/>
  <text x="58" y="545" font-family="PingFang SC, sans-serif" font-size="9" font-weight="700" fill="#4a6cf7" text-anchor="middle">关系</text>
  <text x="82" y="541" font-family="PingFang SC, sans-serif" font-size="12" fill="#0f1733">最在意妈妈和几个老朋友</text>
  <text x="82" y="557" font-family="PingFang SC, sans-serif" font-size="10" fill="#9ba5c0">置信度 79%</text>
  <circle cx="348" cy="546" r="3" fill="#19c37d"/>
  <circle cx="356" cy="546" r="3" fill="#c0c8df"/>
  <circle cx="364" cy="546" r="3" fill="#c0c8df"/>

  <!-- View all link -->
  <text x="215" y="592" font-family="PingFang SC, sans-serif" font-size="12" fill="#4a6cf7" text-anchor="middle">查看全部学习进展 →</text>

  <!-- Section divider -->
  <rect x="20" y="604" width="390" height="1" fill="#e3e7f6"/>

  <!-- Personalization preferences section -->
  <text x="32" y="626" font-family="PingFang SC, sans-serif" font-size="13" font-weight="700" fill="#0f1733">个性化偏好</text>
  <rect x="32" y="636" width="366" height="48" rx="12" fill="#ffffff"/>
  <text x="50" y="659" font-family="PingFang SC, sans-serif" font-size="12" fill="#0f1733">节奏偏好</text>
  <rect x="278" y="644" width="52" height="22" rx="11" fill="#4a6cf7"/>
  <text x="304" y="659" font-family="PingFang SC, sans-serif" font-size="10" fill="#ffffff" text-anchor="middle">从容</text>
  <rect x="334" y="644" width="52" height="22" rx="11" fill="#edf0fd"/>
  <text x="360" y="659" font-family="PingFang SC, sans-serif" font-size="10" fill="#9ba5c0" text-anchor="middle">高效</text>

  <rect x="32" y="692" width="366" height="48" rx="12" fill="#ffffff"/>
  <text x="50" y="715" font-family="PingFang SC, sans-serif" font-size="12" fill="#0f1733">推送时间</text>
  <text x="370" y="715" font-family="PingFang SC, sans-serif" font-size="12" fill="#9ba5c0" text-anchor="end">22:00</text>
  <line x1="368" y1="711" x2="376" y2="715" stroke="#c0c8df" stroke-width="1.5"/>
  <line x1="368" y1="719" x2="376" y2="715" stroke="#c0c8df" stroke-width="1.5"/>

  <rect x="32" y="748" width="366" height="48" rx="12" fill="#ffffff"/>
  <text x="50" y="771" font-family="PingFang SC, sans-serif" font-size="12" fill="#0f1733">允许洞察推送</text>
  <rect x="354" y="756" width="36" height="20" rx="10" fill="#4a6cf7"/>
  <circle cx="380" cy="766" r="8" fill="#ffffff"/>

  <!-- Bottom nav -->
  <rect x="20" y="826" width="390" height="54" fill="#ffffff"/>
  <rect x="20" y="826" width="390" height="1" fill="#e3e7f6"/>
  <!-- 宝盒 -->
  <polygon points="64,836 56,844 72,844" fill="#c0c8df"/>
  <rect x="59" y="844" width="10" height="9" rx="1" fill="#c0c8df"/>
  <text x="64" y="865" font-family="PingFang SC, sans-serif" font-size="9" fill="#9ba5c0" text-anchor="middle">宝盒</text>
  <!-- 工具 -->
  <rect x="126" y="838" width="5" height="5" rx="1" fill="#c0c8df"/>
  <rect x="133" y="838" width="5" height="5" rx="1" fill="#c0c8df"/>
  <rect x="126" y="845" width="5" height="5" rx="1" fill="#c0c8df"/>
  <rect x="133" y="845" width="5" height="5" rx="1" fill="#c0c8df"/>
  <text x="134" y="865" font-family="PingFang SC, sans-serif" font-size="9" fill="#9ba5c0" text-anchor="middle">工具</text>
  <!-- 记录 -->
  <rect x="200" y="837" width="14" height="3" rx="1" fill="#c0c8df"/>
  <rect x="200" y="843" width="11" height="3" rx="1" fill="#c0c8df"/>
  <rect x="200" y="849" width="14" height="3" rx="1" fill="#c0c8df"/>
  <text x="207" y="865" font-family="PingFang SC, sans-serif" font-size="9" fill="#9ba5c0" text-anchor="middle">记录</text>
  <!-- 记账 -->
  <rect x="272" y="837" width="18" height="13" rx="2" fill="none" stroke="#c0c8df" stroke-width="1.5"/>
  <rect x="276" y="841" width="7" height="5" rx="1" fill="#c0c8df"/>
  <text x="281" y="865" font-family="PingFang SC, sans-serif" font-size="9" fill="#9ba5c0" text-anchor="middle">记账</text>
  <!-- 我 (active) -->
  <rect x="334" y="832" width="60" height="30" rx="7" fill="#edf0fd"/>
  <circle cx="364" cy="842" r="5" fill="none" stroke="#4a6cf7" stroke-width="1.5"/>
  <rect x="352" y="850" width="24" height="8" rx="4" fill="none" stroke="#4a6cf7" stroke-width="1.5"/>
  <text x="364" y="865" font-family="PingFang SC, sans-serif" font-size="9" font-weight="600" fill="#4a6cf7" text-anchor="middle">我</text>
  <!-- Home indicator -->
  <rect x="165" y="866" width="100" height="4" rx="2" fill="#c8cce0"/>
</svg>
